<svg xmlns="http://www.w3.org/2000/svg" xmlns:xlink="http://www.w3.org/1999/xlink" width="2000" zoomAndPan="magnify" viewBox="0 0 1500 1499.999933" height="2000" preserveAspectRatio="xMidYMid meet" version="1.0"><defs><g/><clipPath id="be3f53bbc7"><path d="M 305 530.667969 L 563.644531 530.667969 L 563.644531 997.917969 L 305 997.917969 Z M 305 530.667969 " clip-rule="nonzero"/></clipPath><clipPath id="da3a482db2"><path d="M 293 516.417969 L 551.644531 516.417969 L 551.644531 983.667969 L 293 983.667969 Z M 293 516.417969 " clip-rule="nonzero"/></clipPath></defs><g clip-path="url(#be3f53bbc7)"><path fill="#211a16" d="M 305.183594 751.640625 C 305.183594 741.203125 313.652344 732.734375 324.089844 732.734375 L 778.542969 732.734375 C 788.980469 732.734375 797.449219 741.203125 797.449219 751.640625 C 797.449219 762.082031 788.980469 770.550781 778.542969 770.550781 L 324.089844 770.550781 C 313.652344 770.550781 305.183594 762.082031 305.183594 751.640625 Z M 317.984375 707.425781 L 784.746094 707.425781 C 791.835938 707.425781 797.546875 701.324219 796.761719 694.332031 C 786.8125 608.660156 680.757812 530.667969 551.367188 530.667969 C 421.972656 530.667969 315.917969 608.660156 305.96875 694.332031 C 305.085938 701.324219 310.894531 707.425781 317.984375 707.425781 Z M 761.210938 795.757812 L 341.125 795.757812 C 326.847656 795.757812 315.421875 808.855469 318.671875 822.839844 C 318.671875 822.9375 318.671875 823.035156 318.773438 823.132812 C 323.5 842.925781 340.238281 857.796875 358.554688 861.242188 C 376.871094 864.589844 396.171875 857.402344 410.449219 844.304688 C 418.230469 837.117188 426.5 827.566406 436.546875 829.042969 C 440.878906 829.730469 444.621094 832.292969 448.164062 835.148438 C 459.390625 844.011719 469.4375 854.644531 481.351562 862.324219 C 493.265625 869.910156 508.039062 874.242188 520.9375 868.921875 C 537.480469 862.03125 547.722656 840.859375 565.25 838.199219 C 595.085938 833.570312 611.828125 884.679688 641.960938 884.382812 C 669.53125 884.089844 687.0625 840.464844 714.238281 845.980469 C 723.300781 847.851562 730.683594 855.136719 739.449219 858.582031 C 750.773438 863.015625 764.265625 860.160156 773.324219 851.394531 C 782.382812 842.632812 786.519531 828.253906 783.859375 815.355469 C 783.566406 813.976562 783.171875 812.597656 782.777344 811.21875 C 779.824219 801.765625 770.863281 795.757812 761.210938 795.757812 Z M 393.511719 997.824219 L 709.121094 997.824219 C 757.960938 997.824219 797.449219 958.238281 797.449219 909.496094 L 305.183594 909.496094 C 305.183594 958.238281 344.769531 997.824219 393.511719 997.824219 Z M 393.511719 997.824219 " fill-opacity="1" fill-rule="nonzero"/></g><g clip-path="url(#da3a482db2)"><path fill="#c7352d" d="M 293.183594 737.390625 C 293.183594 726.953125 301.652344 718.484375 312.089844 718.484375 L 766.542969 718.484375 C 776.980469 718.484375 785.449219 726.953125 785.449219 737.390625 C 785.449219 747.832031 776.980469 756.300781 766.542969 756.300781 L 312.089844 756.300781 C 301.652344 756.300781 293.183594 747.832031 293.183594 737.390625 Z M 305.984375 693.175781 L 772.746094 693.175781 C 779.835938 693.175781 785.546875 687.074219 784.761719 680.082031 C 774.8125 594.410156 668.757812 516.417969 539.367188 516.417969 C 409.972656 516.417969 303.917969 594.410156 293.96875 680.082031 C 293.085938 687.074219 298.894531 693.175781 305.984375 693.175781 Z M 749.210938 781.507812 L 329.125 781.507812 C 314.847656 781.507812 303.421875 794.605469 306.671875 808.589844 C 306.671875 808.6875 306.671875 808.785156 306.773438 808.882812 C 311.5 828.675781 328.238281 843.546875 346.554688 846.992188 C 364.871094 850.339844 384.171875 843.152344 398.449219 830.054688 C 406.230469 822.867188 414.5 813.316406 424.546875 814.792969 C 428.878906 815.480469 432.621094 818.042969 436.164062 820.898438 C 447.390625 829.761719 457.4375 840.394531 469.351562 848.074219 C 481.265625 855.660156 496.039062 859.992188 508.9375 854.671875 C 525.480469 847.78125 535.722656 826.609375 553.25 823.949219 C 583.085938 819.320312 599.828125 870.429688 629.960938 870.132812 C 657.53125 869.839844 675.0625 826.214844 702.238281 831.730469 C 711.300781 833.601562 718.683594 840.886719 727.449219 844.332031 C 738.773438 848.765625 752.265625 845.910156 761.324219 837.144531 C 770.382812 828.382812 774.519531 814.003906 771.859375 801.105469 C 771.566406 799.726562 771.171875 798.347656 770.777344 796.96875 C 767.824219 787.515625 758.863281 781.507812 749.210938 781.507812 Z M 381.511719 983.574219 L 697.121094 983.574219 C 745.960938 983.574219 785.449219 943.988281 785.449219 895.246094 L 293.183594 895.246094 C 293.183594 943.988281 332.769531 983.574219 381.511719 983.574219 Z M 381.511719 983.574219 " fill-opacity="1" fill-rule="nonzero"/></g><g fill="#c7352d" fill-opacity="1"><g transform="translate(568.00628, 998.249894)"><g><path d="M 153.515625 0 L 32.96875 0 C 28.988281 0 26.109375 -0.890625 24.328125 -2.671875 C 22.546875 -4.453125 21.65625 -7.328125 21.65625 -11.296875 L 21.65625 -214.75 C 21.65625 -218.71875 22.546875 -221.59375 24.328125 -223.375 C 26.109375 -225.15625 28.988281 -226.046875 32.96875 -226.046875 L 133.109375 -226.046875 C 153.628906 -226.046875 168.804688 -222.117188 178.640625 -214.265625 C 188.472656 -206.421875 193.390625 -194.335938 193.390625 -178.015625 L 193.390625 -162.9375 C 193.390625 -154.144531 191.875 -146.972656 188.84375 -141.421875 C 185.8125 -135.878906 181.15625 -131.75 174.875 -129.03125 C 188.269531 -127.78125 198.210938 -123.175781 204.703125 -115.21875 C 211.191406 -107.269531 214.4375 -95.65625 214.4375 -80.375 L 214.4375 -51.484375 C 214.4375 -33.898438 209.460938 -20.921875 199.515625 -12.546875 C 189.578125 -4.179688 174.242188 0 153.515625 0 Z M 92.296875 -172.671875 L 92.296875 -138.765625 L 118.984375 -138.765625 C 122.960938 -138.765625 125.945312 -139.8125 127.9375 -141.90625 C 129.925781 -144 130.921875 -147.140625 130.921875 -151.328125 L 130.921875 -160.109375 C 130.921875 -164.296875 129.925781 -167.4375 127.9375 -169.53125 C 125.945312 -171.625 122.960938 -172.671875 118.984375 -172.671875 Z M 92.296875 -90.421875 L 92.296875 -53.375 L 133.109375 -53.375 C 137.085938 -53.375 140.070312 -54.421875 142.0625 -56.515625 C 144.050781 -58.609375 145.046875 -61.75 145.046875 -65.9375 L 145.046875 -78.171875 C 145.046875 -82.359375 144.050781 -85.445312 142.0625 -87.4375 C 140.070312 -89.425781 137.085938 -90.421875 133.109375 -90.421875 Z M 92.296875 -90.421875 "/></g></g></g><g fill="#c7352d" fill-opacity="1"><g transform="translate(776.159552, 998.249894)"><g><path d="M 214.109375 -59.34375 C 214.109375 -49.707031 212.695312 -40.960938 209.875 -33.109375 C 207.050781 -25.265625 202.023438 -18.566406 194.796875 -13.015625 C 187.578125 -7.472656 177.6875 -3.132812 165.125 0 C 152.570312 3.132812 136.566406 4.703125 117.109375 4.703125 C 97.640625 4.703125 81.625 3.132812 69.0625 0 C 56.507812 -3.132812 46.617188 -7.472656 39.390625 -13.015625 C 32.171875 -18.566406 27.148438 -25.265625 24.328125 -33.109375 C 21.503906 -40.960938 20.09375 -49.707031 20.09375 -59.34375 L 20.09375 -214.75 C 20.09375 -218.71875 20.984375 -221.59375 22.765625 -223.375 C 24.546875 -225.15625 27.421875 -226.046875 31.390625 -226.046875 L 80.6875 -226.046875 C 84.664062 -226.046875 87.539062 -225.15625 89.3125 -223.375 C 91.09375 -221.59375 91.984375 -218.71875 91.984375 -214.75 L 91.984375 -71.578125 C 91.984375 -67.390625 93.550781 -63.882812 96.6875 -61.0625 C 99.832031 -58.238281 106.847656 -56.828125 117.734375 -56.828125 C 128.828125 -56.828125 135.941406 -58.238281 139.078125 -61.0625 C 142.222656 -63.882812 143.796875 -67.390625 143.796875 -71.578125 L 143.796875 -214.75 C 143.796875 -218.71875 144.679688 -221.59375 146.453125 -223.375 C 148.234375 -225.15625 151.113281 -226.046875 155.09375 -226.046875 L 202.8125 -226.046875 C 206.789062 -226.046875 209.664062 -225.15625 211.4375 -223.375 C 213.21875 -221.59375 214.109375 -218.71875 214.109375 -214.75 Z M 214.109375 -59.34375 "/></g></g></g><g fill="#c7352d" fill-opacity="1"><g transform="translate(990.905901, 998.249894)"><g><path d="M 80.0625 0 L 32.96875 0 C 28.988281 0 26.109375 -0.890625 24.328125 -2.671875 C 22.546875 -4.453125 21.65625 -7.328125 21.65625 -11.296875 L 21.65625 -214.75 C 21.65625 -218.71875 22.546875 -221.59375 24.328125 -223.375 C 26.109375 -225.15625 28.988281 -226.046875 32.96875 -226.046875 L 65.609375 -226.046875 C 69.585938 -226.046875 72.988281 -225.414062 75.8125 -224.15625 C 78.644531 -222.90625 81.421875 -220.707031 84.140625 -217.5625 L 145.046875 -147.875 L 145.046875 -214.75 C 145.046875 -218.71875 145.9375 -221.59375 147.71875 -223.375 C 149.5 -225.15625 152.375 -226.046875 156.34375 -226.046875 L 203.4375 -226.046875 C 207.414062 -226.046875 210.296875 -225.15625 212.078125 -223.375 C 213.859375 -221.59375 214.75 -218.71875 214.75 -214.75 L 214.75 -11.296875 C 214.75 -7.328125 213.859375 -4.453125 212.078125 -2.671875 C 210.296875 -0.890625 207.414062 0 203.4375 0 L 156.34375 0 C 152.375 0 149.5 -0.890625 147.71875 -2.671875 C 145.9375 -4.453125 145.046875 -7.328125 145.046875 -11.296875 L 145.046875 -49.921875 L 91.359375 -114.90625 L 91.359375 -11.296875 C 91.359375 -7.328125 90.46875 -4.453125 88.6875 -2.671875 C 86.90625 -0.890625 84.03125 0 80.0625 0 Z M 80.0625 0 "/></g></g></g><g fill="#f7f2e9" fill-opacity="1"><g transform="translate(568.00628, 744.749916)"><g><path d="M 81.628906 11.773438 L 32.964844 11.773438 C 25.738281 11.773438 20.085938 9.734375 16.007812 5.65625 C 11.929688 1.578125 9.890625 -4.074219 9.890625 -11.300781 L 9.890625 -214.746094 C 9.890625 -221.976562 11.929688 -227.628906 16.007812 -231.707031 C 20.085938 -235.785156 25.738281 -237.824219 32.964844 -237.824219 L 129.035156 -237.824219 C 160.929688 -237.824219 183.277344 -230.914062 196.070312 -217.09375 C 208.625 -203.535156 214.902344 -186.113281 214.902344 -164.828125 L 214.902344 -124.640625 C 214.902344 -103.355469 208.625 -85.933594 196.070312 -72.375 C 183.277344 -58.554688 160.929688 -51.644531 129.035156 -51.644531 L 92.929688 -51.644531 L 92.929688 -63.417969 L 104.703125 -63.417969 L 104.703125 -11.300781 C 104.703125 -4.074219 102.664062 1.578125 98.585938 5.65625 C 94.511719 9.734375 88.855469 11.773438 81.628906 11.773438 Z M 81.628906 -11.773438 C 82.433594 -11.773438 82.988281 -11.820312 83.292969 -11.914062 C 82.875 -11.785156 82.421875 -11.480469 81.9375 -10.992188 C 81.453125 -10.507812 81.144531 -10.058594 81.015625 -9.636719 C 81.109375 -9.945312 81.15625 -10.5 81.15625 -11.300781 L 81.15625 -75.191406 L 129.035156 -75.191406 C 154.074219 -75.191406 170.660156 -79.585938 178.792969 -88.371094 C 187.167969 -97.417969 191.355469 -109.507812 191.355469 -124.640625 L 191.355469 -164.828125 C 191.355469 -179.960938 187.167969 -192.050781 178.792969 -201.097656 C 170.660156 -209.882812 154.074219 -214.277344 129.035156 -214.277344 L 32.964844 -214.277344 C 32.164062 -214.277344 31.609375 -214.230469 31.300781 -214.132812 C 31.71875 -214.261719 32.171875 -214.570312 32.65625 -215.054688 C 33.140625 -215.539062 33.449219 -215.992188 33.578125 -216.410156 C 33.484375 -216.105469 33.4375 -215.550781 33.4375 -214.746094 L 33.4375 -11.300781 C 33.4375 -10.5 33.484375 -9.945312 33.578125 -9.636719 C 33.449219 -10.058594 33.140625 -10.507812 32.65625 -10.992188 C 32.171875 -11.480469 31.71875 -11.785156 31.300781 -11.914062 C 31.609375 -11.820312 32.164062 -11.773438 32.964844 -11.773438 Z M 104.078125 -167.339844 L 104.078125 -119.933594 L 92.304688 -119.933594 L 92.304688 -131.707031 L 120.558594 -131.707031 C 122.101562 -131.707031 123.171875 -131.824219 123.773438 -132.058594 C 123.28125 -131.867188 122.824219 -131.414062 122.394531 -130.699219 C 123.160156 -131.972656 123.542969 -133.511719 123.542969 -135.316406 L 123.542969 -151.957031 C 123.542969 -153.757812 123.160156 -155.296875 122.394531 -156.574219 C 122.824219 -155.859375 123.28125 -155.402344 123.773438 -155.210938 C 123.171875 -155.449219 122.101562 -155.566406 120.558594 -155.566406 L 92.304688 -155.566406 L 92.304688 -167.339844 Z M 80.53125 -179.113281 L 120.558594 -179.113281 C 131.074219 -179.113281 138.414062 -175.636719 142.585938 -168.6875 C 145.589844 -163.683594 147.089844 -158.105469 147.089844 -151.957031 L 147.089844 -135.316406 C 147.089844 -129.164062 145.589844 -123.585938 142.585938 -118.582031 C 138.414062 -111.632812 131.074219 -108.160156 120.558594 -108.160156 L 80.53125 -108.160156 Z M 80.53125 -179.113281 "/></g></g></g><g fill="#f7f2e9" fill-opacity="1"><g transform="translate(762.659374, 744.749916)"><g><path d="M 104.390625 -169.535156 L 104.390625 -129.351562 L 92.617188 -129.351562 L 92.617188 -141.125 L 116.164062 -141.125 C 117.425781 -141.125 118.289062 -141.214844 118.757812 -141.394531 C 118.261719 -141.203125 117.796875 -140.78125 117.355469 -140.121094 C 117.921875 -140.96875 118.203125 -142.296875 118.203125 -144.105469 L 118.203125 -154.78125 C 118.203125 -156.589844 117.921875 -157.917969 117.355469 -158.769531 C 117.796875 -158.109375 118.261719 -157.683594 118.757812 -157.492188 C 118.289062 -157.671875 117.425781 -157.761719 116.164062 -157.761719 L 92.617188 -157.761719 L 92.617188 -169.535156 Z M 80.84375 -181.308594 L 116.164062 -181.308594 C 125.808594 -181.308594 132.734375 -178.148438 136.949219 -171.828125 C 140.152344 -167.027344 141.75 -161.34375 141.75 -154.78125 L 141.75 -144.105469 C 141.75 -137.542969 140.152344 -131.859375 136.949219 -127.058594 C 132.734375 -120.738281 125.808594 -117.578125 116.164062 -117.578125 L 80.84375 -117.578125 Z M 81.316406 11.773438 L 32.964844 11.773438 C 25.738281 11.773438 20.085938 9.734375 16.007812 5.65625 C 11.929688 1.578125 9.890625 -4.074219 9.890625 -11.300781 L 9.890625 -214.746094 C 9.890625 -221.976562 11.929688 -227.628906 16.007812 -231.707031 C 20.085938 -235.785156 25.738281 -237.824219 32.964844 -237.824219 L 137.511719 -237.824219 C 164.414062 -237.824219 183.480469 -231.679688 194.710938 -219.394531 C 205.660156 -207.410156 211.136719 -192.152344 211.136719 -173.617188 L 211.136719 -159.175781 C 211.136719 -148.792969 209.515625 -139.777344 206.277344 -132.136719 C 202.417969 -123.019531 195.769531 -116.484375 186.335938 -112.527344 L 181.78125 -123.386719 L 183.082031 -135.085938 C 197.398438 -133.496094 209.066406 -127.585938 218.085938 -117.355469 C 227.058594 -107.179688 231.542969 -94.011719 231.542969 -77.863281 L 231.542969 -11.300781 C 231.542969 -4.074219 229.503906 1.578125 225.425781 5.65625 C 221.347656 9.734375 215.695312 11.773438 208.46875 11.773438 L 159.804688 11.773438 C 152.578125 11.773438 146.921875 9.734375 142.84375 5.65625 C 138.765625 1.578125 136.726562 -4.074219 136.726562 -11.300781 L 136.726562 -59.339844 C 136.726562 -60.632812 136.632812 -61.640625 136.445312 -62.363281 C 136.410156 -62.492188 136.386719 -62.574219 136.371094 -62.601562 C 136.4375 -62.460938 136.542969 -62.308594 136.683594 -62.132812 C 137.183594 -61.515625 137.699219 -61.113281 138.234375 -60.921875 C 137.96875 -61.015625 137.414062 -61.066406 136.570312 -61.066406 L 92.617188 -61.066406 L 92.617188 -72.839844 L 104.390625 -72.839844 L 104.390625 -11.300781 C 104.390625 -4.074219 102.351562 1.578125 98.273438 5.65625 C 94.195312 9.734375 88.542969 11.773438 81.316406 11.773438 Z M 81.316406 -11.773438 C 82.117188 -11.773438 82.671875 -11.820312 82.980469 -11.914062 C 82.5625 -11.785156 82.109375 -11.480469 81.625 -10.992188 C 81.136719 -10.507812 80.832031 -10.058594 80.703125 -9.636719 C 80.796875 -9.945312 80.84375 -10.5 80.84375 -11.300781 L 80.84375 -84.613281 L 136.570312 -84.613281 C 144.710938 -84.613281 150.847656 -82.058594 154.984375 -76.949219 C 158.511719 -72.59375 160.273438 -66.722656 160.273438 -59.339844 L 160.273438 -11.300781 C 160.273438 -10.5 160.324219 -9.945312 160.417969 -9.636719 C 160.289062 -10.058594 159.980469 -10.507812 159.496094 -10.992188 C 159.011719 -11.480469 158.558594 -11.785156 158.140625 -11.914062 C 158.445312 -11.820312 159 -11.773438 159.804688 -11.773438 L 208.46875 -11.773438 C 209.269531 -11.773438 209.824219 -11.820312 210.132812 -11.914062 C 209.714844 -11.785156 209.261719 -11.480469 208.777344 -10.992188 C 208.292969 -10.507812 207.984375 -10.058594 207.855469 -9.636719 C 207.949219 -9.945312 207.996094 -10.5 207.996094 -11.300781 L 207.996094 -77.863281 C 207.996094 -88.082031 205.472656 -96.054688 200.421875 -101.785156 C 195.414062 -107.464844 188.769531 -110.761719 180.480469 -111.683594 L 135.382812 -116.695312 L 177.226562 -134.242188 C 180.769531 -135.730469 183.226562 -138.089844 184.597656 -141.320312 C 186.59375 -146.027344 187.589844 -151.980469 187.589844 -159.175781 L 187.589844 -173.617188 C 187.589844 -186.058594 184.167969 -196.023438 177.328125 -203.507812 C 170.769531 -210.6875 157.496094 -214.277344 137.511719 -214.277344 L 32.964844 -214.277344 C 32.164062 -214.277344 31.609375 -214.230469 31.300781 -214.132812 C 31.71875 -214.261719 32.171875 -214.570312 32.65625 -215.054688 C 33.140625 -215.539062 33.449219 -215.992188 33.578125 -216.410156 C 33.484375 -216.105469 33.4375 -215.550781 33.4375 -214.746094 L 33.4375 -11.300781 C 33.4375 -10.5 33.484375 -9.945312 33.578125 -9.636719 C 33.449219 -10.058594 33.140625 -10.507812 32.65625 -10.992188 C 32.171875 -11.480469 31.71875 -11.785156 31.300781 -11.914062 C 31.609375 -11.820312 32.164062 -11.773438 32.964844 -11.773438 Z M 81.316406 -11.773438 "/></g></g></g><g fill="#f7f2e9" fill-opacity="1"><g transform="translate(974.89416, 744.749916)"><g><path d="M 224.949219 -59.339844 C 224.949219 -48.339844 223.304688 -38.273438 220.015625 -29.132812 C 216.410156 -19.121094 210.085938 -10.640625 201.039062 -3.691406 C 192.519531 2.851562 181.128906 7.894531 166.875 11.425781 C 153.28125 14.796875 136.273438 16.484375 115.851562 16.484375 C 95.433594 16.484375 78.378906 14.800781 64.691406 11.433594 C 50.320312 7.898438 38.875 2.859375 30.347656 -3.691406 C 21.300781 -10.640625 14.976562 -19.121094 11.371094 -29.132812 C 8.082031 -38.273438 6.4375 -48.339844 6.4375 -59.339844 L 6.4375 -166.398438 C 6.4375 -177.394531 8.082031 -187.464844 11.371094 -196.601562 C 14.960938 -206.578125 21.257812 -215.089844 30.261719 -222.136719 C 38.808594 -228.824219 50.285156 -233.941406 64.691406 -237.480469 C 78.378906 -240.847656 95.433594 -242.53125 115.851562 -242.53125 C 136.273438 -242.53125 153.28125 -240.847656 166.875 -237.476562 C 181.167969 -233.933594 192.582031 -228.820312 201.125 -222.136719 C 210.128906 -215.089844 216.425781 -206.578125 220.015625 -196.601562 C 223.304688 -187.464844 224.949219 -177.394531 224.949219 -166.398438 Z M 201.402344 -59.339844 L 201.402344 -166.398438 C 201.402344 -174.65625 200.222656 -182.066406 197.859375 -188.625 C 195.800781 -194.34375 192.050781 -199.335938 186.613281 -203.589844 C 180.710938 -208.210938 172.246094 -211.886719 161.210938 -214.621094 C 149.476562 -217.53125 134.355469 -218.984375 115.851562 -218.984375 C 97.335938 -218.984375 82.15625 -217.527344 70.3125 -214.617188 C 59.179688 -211.878906 50.667969 -208.203125 44.773438 -203.589844 C 39.335938 -199.335938 35.585938 -194.34375 33.527344 -188.625 C 31.164062 -182.066406 29.984375 -174.65625 29.984375 -166.398438 L 29.984375 -59.339844 C 29.984375 -51.078125 31.164062 -43.671875 33.527344 -37.109375 C 35.570312 -31.425781 39.292969 -26.511719 44.691406 -22.367188 C 50.605469 -17.824219 59.144531 -14.179688 70.3125 -11.433594 C 82.15625 -8.519531 97.335938 -7.0625 115.851562 -7.0625 C 134.355469 -7.0625 149.476562 -8.519531 161.210938 -11.425781 C 172.28125 -14.171875 180.777344 -17.820312 186.695312 -22.367188 C 192.09375 -26.511719 195.816406 -31.425781 197.859375 -37.109375 C 200.222656 -43.671875 201.402344 -51.078125 201.402344 -59.339844 Z M 101.25 -70.640625 C 101.25 -69.949219 101.523438 -69.359375 102.0625 -68.875 C 101.878906 -69.039062 101.714844 -69.164062 101.570312 -69.25 C 101.589844 -69.238281 101.65625 -69.210938 101.765625 -69.164062 C 102.347656 -68.925781 103.167969 -68.703125 104.21875 -68.5 C 107.082031 -67.9375 110.960938 -67.65625 115.851562 -67.65625 C 120.742188 -67.65625 124.617188 -67.9375 127.480469 -68.5 C 128.535156 -68.703125 129.351562 -68.925781 129.9375 -69.164062 C 130.042969 -69.210938 130.109375 -69.238281 130.128906 -69.25 C 129.984375 -69.164062 129.820312 -69.039062 129.636719 -68.875 C 130.179688 -69.359375 130.449219 -69.949219 130.449219 -70.640625 L 130.449219 -155.09375 C 130.449219 -155.574219 130.179688 -156.058594 129.636719 -156.546875 C 129.820312 -156.382812 129.984375 -156.257812 130.128906 -156.171875 C 130.109375 -156.183594 130.042969 -156.210938 129.9375 -156.257812 C 129.351562 -156.496094 128.535156 -156.71875 127.480469 -156.921875 C 124.617188 -157.484375 120.742188 -157.761719 115.851562 -157.761719 C 110.960938 -157.761719 107.082031 -157.484375 104.21875 -156.921875 C 103.167969 -156.71875 102.347656 -156.496094 101.765625 -156.257812 C 101.65625 -156.210938 101.589844 -156.183594 101.570312 -156.171875 C 101.714844 -156.257812 101.878906 -156.382812 102.0625 -156.546875 C 101.523438 -156.058594 101.25 -155.574219 101.25 -155.09375 Z M 77.703125 -70.640625 L 77.703125 -155.09375 C 77.703125 -162.566406 80.574219 -168.886719 86.3125 -174.050781 C 89.496094 -176.914062 93.957031 -178.910156 99.695312 -180.03125 C 104.054688 -180.882812 109.4375 -181.308594 115.851562 -181.308594 C 122.261719 -181.308594 127.648438 -180.882812 132.003906 -180.03125 C 137.746094 -178.910156 142.207031 -176.914062 145.390625 -174.050781 C 151.128906 -168.886719 153.996094 -162.566406 153.996094 -155.09375 L 153.996094 -70.640625 C 153.996094 -62.957031 151.128906 -56.535156 145.390625 -51.371094 C 142.207031 -48.507812 137.746094 -46.511719 132.003906 -45.390625 C 127.648438 -44.539062 122.261719 -44.109375 115.851562 -44.109375 C 109.4375 -44.109375 104.054688 -44.539062 99.695312 -45.390625 C 93.957031 -46.511719 89.496094 -48.507812 86.3125 -51.371094 C 80.574219 -56.535156 77.703125 -62.957031 77.703125 -70.640625 Z M 77.703125 -70.640625 "/></g></g></g><g fill="#211a16" fill-opacity="1"><g transform="translate(568.00628, 744.749916)"><g><path d="M 81.625 0 L 32.96875 0 C 28.988281 0 26.109375 -0.890625 24.328125 -2.671875 C 22.546875 -4.453125 21.65625 -7.328125 21.65625 -11.296875 L 21.65625 -214.75 C 21.65625 -218.71875 22.546875 -221.59375 24.328125 -223.375 C 26.109375 -225.15625 28.988281 -226.046875 32.96875 -226.046875 L 129.03125 -226.046875 C 157.5 -226.046875 176.960938 -220.394531 187.421875 -209.09375 C 197.890625 -197.789062 203.125 -183.035156 203.125 -164.828125 L 203.125 -124.640625 C 203.125 -106.429688 197.890625 -91.675781 187.421875 -80.375 C 176.960938 -69.070312 157.5 -63.421875 129.03125 -63.421875 L 92.9375 -63.421875 L 92.9375 -11.296875 C 92.9375 -7.328125 92.046875 -4.453125 90.265625 -2.671875 C 88.484375 -0.890625 85.601562 0 81.625 0 Z M 92.296875 -167.34375 L 92.296875 -119.9375 L 120.5625 -119.9375 C 126.625 -119.9375 130.597656 -121.503906 132.484375 -124.640625 C 134.367188 -127.773438 135.3125 -131.332031 135.3125 -135.3125 L 135.3125 -151.953125 C 135.3125 -155.929688 134.367188 -159.488281 132.484375 -162.625 C 130.597656 -165.769531 126.625 -167.34375 120.5625 -167.34375 Z M 92.296875 -167.34375 "/></g></g></g><g fill="#211a16" fill-opacity="1"><g transform="translate(762.659374, 744.749916)"><g><path d="M 92.609375 -169.53125 L 92.609375 -129.34375 L 116.15625 -129.34375 C 121.601562 -129.34375 125.269531 -130.753906 127.15625 -133.578125 C 129.039062 -136.410156 129.984375 -139.921875 129.984375 -144.109375 L 129.984375 -154.78125 C 129.984375 -158.96875 129.039062 -162.472656 127.15625 -165.296875 C 125.269531 -168.117188 121.601562 -169.53125 116.15625 -169.53125 Z M 81.3125 0 L 32.96875 0 C 28.988281 0 26.109375 -0.890625 24.328125 -2.671875 C 22.546875 -4.453125 21.65625 -7.328125 21.65625 -11.296875 L 21.65625 -214.75 C 21.65625 -218.71875 22.546875 -221.59375 24.328125 -223.375 C 26.109375 -225.15625 28.988281 -226.046875 32.96875 -226.046875 L 137.515625 -226.046875 C 160.953125 -226.046875 177.117188 -221.175781 186.015625 -211.4375 C 194.910156 -201.707031 199.359375 -189.097656 199.359375 -173.609375 L 199.359375 -159.171875 C 199.359375 -150.378906 198.050781 -142.894531 195.4375 -136.71875 C 192.820312 -130.550781 188.269531 -126.109375 181.78125 -123.390625 C 193.082031 -122.128906 202.238281 -117.519531 209.25 -109.5625 C 216.257812 -101.613281 219.765625 -91.046875 219.765625 -77.859375 L 219.765625 -11.296875 C 219.765625 -7.328125 218.875 -4.453125 217.09375 -2.671875 C 215.320312 -0.890625 212.445312 0 208.46875 0 L 159.796875 0 C 155.828125 0 152.953125 -0.890625 151.171875 -2.671875 C 149.390625 -4.453125 148.5 -7.328125 148.5 -11.296875 L 148.5 -59.34375 C 148.5 -63.945312 147.609375 -67.347656 145.828125 -69.546875 C 144.046875 -71.742188 140.957031 -72.84375 136.5625 -72.84375 L 92.609375 -72.84375 L 92.609375 -11.296875 C 92.609375 -7.328125 91.71875 -4.453125 89.9375 -2.671875 C 88.164062 -0.890625 85.289062 0 81.3125 0 Z M 81.3125 0 "/></g></g></g><g fill="#211a16" fill-opacity="1"><g transform="translate(974.89416, 744.749916)"><g><path d="M 213.171875 -59.34375 C 213.171875 -49.707031 211.757812 -40.960938 208.9375 -33.109375 C 206.113281 -25.265625 201.085938 -18.566406 193.859375 -13.015625 C 186.640625 -7.472656 176.695312 -3.132812 164.03125 0 C 151.375 3.132812 135.3125 4.703125 115.84375 4.703125 C 96.382812 4.703125 80.269531 3.132812 67.5 0 C 54.726562 -3.132812 44.734375 -7.472656 37.515625 -13.015625 C 30.296875 -18.566406 25.269531 -25.265625 22.4375 -33.109375 C 19.613281 -40.960938 18.203125 -49.707031 18.203125 -59.34375 L 18.203125 -166.390625 C 18.203125 -176.023438 19.613281 -184.765625 22.4375 -192.609375 C 25.269531 -200.460938 30.296875 -207.210938 37.515625 -212.859375 C 44.734375 -218.515625 54.726562 -222.910156 67.5 -226.046875 C 80.269531 -229.179688 96.382812 -230.75 115.84375 -230.75 C 135.3125 -230.75 151.375 -229.179688 164.03125 -226.046875 C 176.695312 -222.910156 186.640625 -218.515625 193.859375 -212.859375 C 201.085938 -207.210938 206.113281 -200.460938 208.9375 -192.609375 C 211.757812 -184.765625 213.171875 -176.023438 213.171875 -166.390625 Z M 89.484375 -70.640625 C 89.484375 -66.453125 91.050781 -62.945312 94.1875 -60.125 C 97.320312 -57.300781 104.539062 -55.890625 115.84375 -55.890625 C 127.144531 -55.890625 134.363281 -57.300781 137.5 -60.125 C 140.644531 -62.945312 142.21875 -66.453125 142.21875 -70.640625 L 142.21875 -155.09375 C 142.21875 -159.070312 140.644531 -162.472656 137.5 -165.296875 C 134.363281 -168.117188 127.144531 -169.53125 115.84375 -169.53125 C 104.539062 -169.53125 97.320312 -168.117188 94.1875 -165.296875 C 91.050781 -162.472656 89.484375 -159.070312 89.484375 -155.09375 Z M 89.484375 -70.640625 "/></g></g></g></svg>